<svg version="1.1" viewBox="0.0 0.0 960.0 540.0" fill="none" stroke="none" stroke-linecap="square" stroke-miterlimit="10" xmlns:xlink="http://www.w3.org/1999/xlink" xmlns="http://www.w3.org/2000/svg"><clipPath id="g376df1b38b8_0_0.0"><path d="m0 0l960.0 0l0 540.0l-960.0 0l0 -540.0z" clip-rule="nonzero"/></clipPath><g clip-path="url(#g376df1b38b8_0_0.0)"><path fill="#ffffff" d="m0 0l960.0 0l0 540.0l-960.0 0z" fill-rule="evenodd"/><path fill="#000000" fill-opacity="0.0" d="m32.725285 78.1706l894.5512 0l0 215.49606l-894.5512 0z" fill-rule="evenodd"/><path fill="#413a3b" d="m188.3533 184.82668l-13.171875 -49.625l6.734375 0l7.546875 32.53125q1.21875 5.109375 2.109375 10.15625q1.890625 -7.953125 2.234375 -9.171875l9.4375 -33.515625l7.921875 0l7.109375 25.109375q2.671875 9.34375 3.859375 17.578125q0.953125 -4.703125 2.46875 -10.796875l7.796875 -31.890625l6.59375 0l-13.609375 49.625l-6.328125 0l-10.453125 -37.8125q-1.328125 -4.734375 -1.5625 -5.828125q-0.78125 3.421875 -1.453125 5.828125l-10.53125 37.8125l-6.703125 0zm79.35446 -11.578125l6.28125 0.78125q-1.484375 5.515625 -5.515625 8.5625q-4.015625 3.046875 -10.28125 3.046875q-7.890625 0 -12.515625 -4.859375q-4.625 -4.859375 -4.625 -13.625q0 -9.078125 4.671875 -14.078125q4.671875 -5.015625 12.125 -5.015625q7.21875 0 11.78125 4.90625q4.5625 4.90625 4.5625 13.8125q0 0.546875 -0.03125 1.625l-26.8125 0q0.34375 5.921875 3.359375 9.078125q3.015625 3.140625 7.515625 3.140625q3.34375 0 5.71875 -1.75q2.375 -1.765625 3.765625 -5.625zm-20.015625 -9.84375l20.078125 0q-0.40625 -4.546875 -2.296875 -6.8125q-2.921875 -3.515625 -7.5625 -3.515625q-4.1875 0 -7.046875 2.8125q-2.859375 2.796875 -3.171875 7.515625zm58.57263 9.84375l6.28125 0.78125q-1.484375 5.515625 -5.515625 8.5625q-4.015625 3.046875 -10.28125 3.046875q-7.890625 0 -12.515625 -4.859375q-4.625 -4.859375 -4.625 -13.625q0 -9.078125 4.671875 -14.078125q4.671875 -5.015625 12.125 -5.015625q7.21875 0 11.78125 4.90625q4.5625 4.90625 4.5625 13.8125q0 0.546875 -0.03125 1.625l-26.8125 0q0.34375 5.921875 3.359375 9.078125q3.015625 3.140625 7.515625 3.140625q3.34375 0 5.71875 -1.75q2.375 -1.765625 3.765625 -5.625zm-20.015625 -9.84375l20.078125 0q-0.40625 -4.546875 -2.296875 -6.8125q-2.921875 -3.515625 -7.5625 -3.515625q-4.1875 0 -7.046875 2.8125q-2.859375 2.796875 -3.171875 7.515625zm33.994507 21.421875l0 -49.625l6.09375 0l0 28.296875l14.421875 -14.625l7.875 0l-13.734375 13.34375l15.125 22.609375l-7.515625 0l-11.875 -18.375l-4.296875 4.125l0 14.25l-6.09375 0zm52.597534 -43.125l0 -5.859375l32.125 0l0 4.734375q-4.734375 5.046875 -9.390625 13.40625q-4.65625 8.359375 -7.1875 17.203125q-1.828125 6.234375 -2.34375 13.640625l-6.265625 0q0.109375 -5.859375 2.296875 -14.140625q2.203125 -8.296875 6.3125 -16.0q4.125 -7.703125 8.765625 -12.984375l-24.3125 0zm59.677948 43.125l0 -49.625l9.890625 0l11.75 35.140625q1.625 4.90625 2.359375 7.34375q0.859375 -2.703125 2.640625 -7.953125l11.890625 -34.53125l8.828125 0l0 49.625l-6.328125 0l0 -41.53125l-14.421875 41.53125l-5.921875 0l-14.359375 -42.25l0 42.25l-6.328125 0zm57.219604 -42.625l0 -7.0l6.09375 0l0 7.0l-6.09375 0zm0 42.625l0 -35.953125l6.09375 0l0 35.953125l-6.09375 0zm15.355621 0l0 -35.953125l5.484375 0l0 5.109375q3.96875 -5.921875 11.453125 -5.921875q3.25 0 5.96875 1.171875q2.734375 1.171875 4.078125 3.0625q1.359375 1.890625 1.90625 4.5q0.328125 1.6875 0.328125 5.921875l0 22.109375l-6.09375 0l0 -21.875q0 -3.71875 -0.71875 -5.5625q-0.703125 -1.84375 -2.515625 -2.9375q-1.8125 -1.109375 -4.25 -1.109375q-3.890625 0 -6.71875 2.46875q-2.828125 2.46875 -2.828125 9.375l0 19.640625l-6.09375 0zm38.60388 -42.625l0 -7.0l6.09375 0l0 7.0l-6.09375 0zm0 42.625l0 -35.953125l6.09375 0l0 35.953125l-6.09375 0zm12.996277 -14.890625l0 -6.125l18.71875 0l0 6.125l-18.71875 0zm25.446167 28.671875l0 -49.734375l5.5625 0l0 4.671875q1.953125 -2.734375 4.421875 -4.109375q2.484375 -1.375 6.0 -1.375q4.609375 0 8.125 2.375q3.515625 2.359375 5.3125 6.6875q1.796875 4.3125 1.796875 9.453125q0 5.515625 -1.984375 9.9375q-1.96875 4.421875 -5.75 6.78125q-3.78125 2.34375 -7.9375 2.34375q-3.046875 0 -5.46875 -1.28125q-2.421875 -1.296875 -3.984375 -3.25l0 17.5l-6.09375 0zm5.53125 -31.546875q0 6.9375 2.796875 10.25q2.8125 3.3125 6.8125 3.3125q4.0625 0 6.953125 -3.421875q2.890625 -3.4375 2.890625 -10.65625q0 -6.875 -2.828125 -10.28125q-2.8125 -3.421875 -6.75 -3.421875q-3.890625 0 -6.890625 3.640625q-2.984375 3.625 -2.984375 10.578125zm32.963257 17.765625l0 -35.953125l5.484375 0l0 5.453125q2.09375 -3.828125 3.875 -5.046875q1.78125 -1.21875 3.90625 -1.21875q3.09375 0 6.265625 1.96875l-2.09375 5.65625q-2.234375 -1.328125 -4.46875 -1.328125q-2.0 0 -3.59375 1.203125q-1.59375 1.203125 -2.265625 3.328125q-1.015625 3.25 -1.015625 7.109375l0 18.828125l-6.09375 0zm20.883667 -17.96875q0 -10.0 5.5625 -14.796875q4.625 -4.0 11.296875 -4.0q7.421875 0 12.125 4.859375q4.703125 4.859375 4.703125 13.421875q0 6.9375 -2.078125 10.921875q-2.078125 3.96875 -6.0625 6.171875q-3.984375 2.203125 -8.6875 2.203125q-7.546875 0 -12.203125 -4.84375q-4.65625 -4.84375 -4.65625 -13.9375zm6.265625 0q0 6.90625 3.015625 10.34375q3.015625 3.421875 7.578125 3.421875q4.546875 0 7.546875 -3.453125q3.015625 -3.453125 3.015625 -10.515625q0 -6.671875 -3.03125 -10.109375q-3.03125 -3.4375 -7.53125 -3.4375q-4.5625 0 -7.578125 3.421875q-3.015625 3.421875 -3.015625 10.328125zm34.525757 -24.578125l0 -7.078125l6.09375 0l0 7.078125l-6.09375 0zm-7.71875 56.5l1.15625 -5.1875q1.828125 0.46875 2.875 0.46875q1.859375 0 2.765625 -1.234375q0.921875 -1.234375 0.921875 -6.171875l0 -37.78125l6.09375 0l0 37.921875q0 6.625 -1.71875 9.234375q-2.203125 3.390625 -7.3125 3.390625q-2.46875 0 -4.78125 -0.640625zm47.777466 -25.53125l6.28125 0.78125q-1.484375 5.515625 -5.515625 8.5625q-4.015625 3.046875 -10.28125 3.046875q-7.890625 0 -12.515625 -4.859375q-4.625 -4.859375 -4.625 -13.625q0 -9.078125 4.671875 -14.078125q4.671875 -5.015625 12.125 -5.015625q7.21875 0 11.78125 4.90625q4.5625 4.90625 4.5625 13.8125q0 0.546875 -0.03125 1.625l-26.8125 0q0.34375 5.921875 3.359375 9.078125q3.015625 3.140625 7.515625 3.140625q3.34375 0 5.71875 -1.75q2.375 -1.765625 3.765625 -5.625zm-20.015625 -9.84375l20.078125 0q-0.40625 -4.546875 -2.296875 -6.8125q-2.921875 -3.515625 -7.5625 -3.515625q-4.1875 0 -7.046875 2.8125q-2.859375 2.796875 -3.171875 7.515625zm57.41638 8.25l5.984375 0.78125q-0.96875 6.203125 -5.015625 9.703125q-4.046875 3.5 -9.9375 3.5q-7.390625 0 -11.875 -4.8125q-4.484375 -4.828125 -4.484375 -13.84375q0 -5.8125 1.921875 -10.171875q1.9375 -4.375 5.875 -6.5625q3.953125 -2.1875 8.59375 -2.1875q5.859375 0 9.578125 2.96875q3.71875 2.953125 4.78125 8.40625l-5.9375 0.921875q-0.84375 -3.625 -3.0 -5.453125q-2.140625 -1.828125 -5.1875 -1.828125q-4.609375 0 -7.484375 3.296875q-2.875 3.296875 -2.875 10.4375q0 7.25 2.765625 10.53125q2.78125 3.28125 7.25 3.28125q3.59375 0 6.0 -2.1875q2.40625 -2.203125 3.046875 -6.78125zm24.507812 7.71875l0.875 5.390625q-2.5625 0.53125 -4.59375 0.53125q-3.328125 0 -5.15625 -1.046875q-1.828125 -1.046875 -2.578125 -2.75q-0.734375 -1.71875 -0.734375 -7.203125l0 -20.6875l-4.46875 0l0 -4.734375l4.46875 0l0 -8.90625l6.0625 -3.65625l0 12.5625l6.125 0l0 4.734375l-6.125 0l0 21.03125q0 2.609375 0.3125 3.359375q0.328125 0.734375 1.046875 1.171875q0.734375 0.4375 2.09375 0.4375q1.015625 0 2.671875 -0.234375z" fill-rule="nonzero"/><path fill="#413a3b" d="m152.74979 250.62042l6.578125 1.671875q-2.0625 8.078125 -7.4375 12.328125q-5.359375 4.25 -13.109375 4.25q-8.03125 0 -13.062492 -3.265625q-5.015625 -3.265625 -7.640625 -9.453125q-2.625 -6.203125 -2.625 -13.3125q0 -7.75 2.953125 -13.515625q2.96875 -5.78125 8.4375 -8.765625q5.4687424 -3.0 12.031242 -3.0q7.453125 0 12.53125 3.796875q5.078125 3.78125 7.078125 10.65625l-6.46875 1.515625q-1.734375 -5.40625 -5.015625 -7.875q-3.28125 -2.484375 -8.25 -2.484375q-5.734375 0 -9.578125 2.75q-3.8281174 2.734375 -5.3906174 7.359375q-1.5625 4.625 -1.5625 9.53125q0 6.328125 1.84375 11.0625q1.84375 4.71875 5.7343674 7.0625q3.90625 2.328125 8.4375 2.328125q5.515625 0 9.34375 -3.1875q3.828125 -3.1875 5.171875 -9.453125zm37.44156 17.40625l0 -5.28125q-4.1875 6.09375 -11.40625 6.09375q-3.171875 0 -5.9375 -1.21875q-2.765625 -1.21875 -4.109375 -3.0625q-1.328125 -1.84375 -1.859375 -4.515625q-0.375 -1.796875 -0.375 -5.6875l0 -22.28125l6.09375 0l0 19.9375q0 4.78125 0.375 6.4375q0.5625 2.40625 2.421875 3.78125q1.875 1.359375 4.609375 1.359375q2.75 0 5.140625 -1.40625q2.40625 -1.40625 3.40625 -3.8125q1.0 -2.421875 1.0 -7.03125l0 -19.265625l6.09375 0l0 35.953125l-5.453125 0zm12.557007 -10.734375l6.03125 -0.9375q0.515625 3.609375 2.828125 5.546875q2.3125 1.921875 6.484375 1.921875q4.203125 0 6.234375 -1.703125q2.03125 -1.703125 2.03125 -4.015625q0 -2.0625 -1.796875 -3.25q-1.25 -0.8125 -6.234375 -2.0625q-6.703125 -1.6875 -9.296875 -2.921875q-2.578125 -1.234375 -3.921875 -3.421875q-1.34375 -2.1875 -1.34375 -4.828125q0 -2.40625 1.09375 -4.453125q1.109375 -2.046875 3.015625 -3.40625q1.421875 -1.046875 3.875 -1.765625q2.453125 -0.734375 5.265625 -0.734375q4.21875 0 7.421875 1.21875q3.203125 1.21875 4.71875 3.3125q1.53125 2.078125 2.109375 5.5625l-5.96875 0.8125q-0.40625 -2.78125 -2.359375 -4.328125q-1.9375 -1.5625 -5.484375 -1.5625q-4.203125 0 -6.0 1.390625q-1.796875 1.375 -1.796875 3.25q0 1.171875 0.75 2.125q0.75 0.984375 2.34375 1.625q0.90625 0.34375 5.375 1.5625q6.46875 1.71875 9.015625 2.828125q2.5625 1.09375 4.015625 3.203125q1.453125 2.09375 1.453125 5.203125q0 3.046875 -1.78125 5.75q-1.765625 2.6875 -5.125 4.15625q-3.34375 1.46875 -7.578125 1.46875q-7.0 0 -10.6875 -2.90625q-3.671875 -2.921875 -4.6875 -8.640625zm50.414062 5.28125l0.875 5.390625q-2.5625 0.53125 -4.59375 0.53125q-3.328125 0 -5.15625 -1.046875q-1.828125 -1.046875 -2.578125 -2.75q-0.734375 -1.71875 -0.734375 -7.203125l0 -20.6875l-4.46875 0l0 -4.734375l4.46875 0l0 -8.90625l6.0625 -3.65625l0 12.5625l6.125 0l0 4.734375l-6.125 0l0 21.03125q0 2.609375 0.3125 3.359375q0.328125 0.734375 1.046875 1.171875q0.734375 0.4375 2.09375 0.4375q1.015625 0 2.671875 -0.234375zm3.6834717 -12.515625q0 -10.0 5.5625 -14.796875q4.625 -4.0 11.296875 -4.0q7.421875 0 12.125 4.859375q4.703125 4.859375 4.703125 13.421875q0 6.9375 -2.078125 10.921875q-2.078125 3.96875 -6.0625 6.171875q-3.984375 2.203125 -8.6875 2.203125q-7.546875 0 -12.203125 -4.84375q-4.65625 -4.84375 -4.65625 -13.9375zm6.265625 0q0 6.90625 3.015625 10.34375q3.015625 3.421875 7.578125 3.421875q4.546875 0 7.546875 -3.453125q3.015625 -3.453125 3.015625 -10.515625q0 -6.671875 -3.03125 -10.109375q-3.03125 -3.4375 -7.53125 -3.4375q-4.5625 0 -7.578125 3.421875q-3.015625 3.421875 -3.015625 10.328125zm34.557007 17.96875l0 -35.953125l5.453125 0l0 5.046875q1.703125 -2.640625 4.5 -4.25q2.8125 -1.609375 6.40625 -1.609375q4.0 0 6.546875 1.65625q2.5625 1.65625 3.609375 4.640625q4.265625 -6.296875 11.09375 -6.296875q5.359375 0 8.234375 2.96875q2.875 2.953125 2.875 9.125l0 24.671875l-6.0625 0l0 -22.640625q0 -3.65625 -0.59375 -5.265625q-0.59375 -1.609375 -2.15625 -2.59375q-1.546875 -0.984375 -3.640625 -0.984375q-3.796875 0 -6.296875 2.53125q-2.5 2.515625 -2.5 8.0625l0 20.890625l-6.09375 0l0 -23.359375q0 -4.0625 -1.5 -6.09375q-1.484375 -2.03125 -4.875 -2.03125q-2.5625 0 -4.75 1.359375q-2.1875 1.34375 -3.171875 3.953125q-0.984375 2.609375 -0.984375 7.515625l0 18.65625l-6.09375 0zm82.375854 -11.578125l6.28125 0.78125q-1.484375 5.515625 -5.515625 8.5625q-4.015625 3.046875 -10.28125 3.046875q-7.890625 0 -12.515625 -4.859375q-4.625 -4.859375 -4.625 -13.625q0 -9.078125 4.671875 -14.078125q4.671875 -5.015625 12.125 -5.015625q7.21875 0 11.78125 4.90625q4.5625 4.90625 4.5625 13.8125q0 0.546875 -0.03125 1.625l-26.8125 0q0.34375 5.921875 3.359375 9.078125q3.015625 3.140625 7.515625 3.140625q3.34375 0 5.71875 -1.75q2.375 -1.765625 3.765625 -5.625zm-20.015625 -9.84375l20.078125 0q-0.40625 -4.546875 -2.296875 -6.8125q-2.921875 -3.515625 -7.5625 -3.515625q-4.1875 0 -7.046875 2.8125q-2.859375 2.796875 -3.171875 7.515625zm33.88513 21.421875l0 -35.953125l5.484375 0l0 5.453125q2.09375 -3.828125 3.875 -5.046875q1.78125 -1.21875 3.90625 -1.21875q3.09375 0 6.265625 1.96875l-2.09375 5.65625q-2.234375 -1.328125 -4.46875 -1.328125q-2.0 0 -3.59375 1.203125q-1.59375 1.203125 -2.265625 3.328125q-1.015625 3.25 -1.015625 7.109375l0 18.828125l-6.09375 0zm39.97342 -10.734375l6.03125 -0.9375q0.515625 3.609375 2.828125 5.546875q2.3125 1.921875 6.484375 1.921875q4.203125 0 6.234375 -1.703125q2.03125 -1.703125 2.03125 -4.015625q0 -2.0625 -1.796875 -3.25q-1.25 -0.8125 -6.234375 -2.0625q-6.703125 -1.6875 -9.296875 -2.921875q-2.578125 -1.234375 -3.921875 -3.421875q-1.34375 -2.1875 -1.34375 -4.828125q0 -2.40625 1.09375 -4.453125q1.109375 -2.046875 3.015625 -3.40625q1.421875 -1.046875 3.875 -1.765625q2.453125 -0.734375 5.265625 -0.734375q4.21875 0 7.421875 1.21875q3.203125 1.21875 4.71875 3.3125q1.53125 2.078125 2.109375 5.5625l-5.96875 0.8125q-0.40625 -2.78125 -2.359375 -4.328125q-1.9375 -1.5625 -5.484375 -1.5625q-4.203125 0 -6.0 1.390625q-1.796875 1.375 -1.796875 3.25q0 1.171875 0.75 2.125q0.75 0.984375 2.34375 1.625q0.90625 0.34375 5.375 1.5625q6.46875 1.71875 9.015625 2.828125q2.5625 1.09375 4.015625 3.203125q1.453125 2.09375 1.453125 5.203125q0 3.046875 -1.78125 5.75q-1.765625 2.6875 -5.125 4.15625q-3.34375 1.46875 -7.578125 1.46875q-7.0 0 -10.6875 -2.90625q-3.671875 -2.921875 -4.6875 -8.640625zm61.726562 -0.84375l6.28125 0.78125q-1.484375 5.515625 -5.515625 8.5625q-4.015625 3.046875 -10.28125 3.046875q-7.890625 0 -12.515625 -4.859375q-4.625 -4.859375 -4.625 -13.625q0 -9.078125 4.671875 -14.078125q4.671875 -5.015625 12.125 -5.015625q7.21875 0 11.78125 4.90625q4.5625 4.90625 4.5625 13.8125q0 0.546875 -0.03125 1.625l-26.8125 0q0.34375 5.921875 3.359375 9.078125q3.015625 3.140625 7.515625 3.140625q3.34375 0 5.71875 -1.75q2.375 -1.765625 3.765625 -5.625zm-20.015625 -9.84375l20.078125 0q-0.40625 -4.546875 -2.296875 -6.8125q-2.921875 -3.515625 -7.5625 -3.515625q-4.1875 0 -7.046875 2.8125q-2.859375 2.796875 -3.171875 7.515625zm32.838257 24.40625l5.9219055 0.875q0.375 2.734375 2.0625 4.0q2.265625 1.6875 6.203125 1.6875q4.234375 0 6.53125 -1.703125q2.296875 -1.6875 3.109375 -4.734375q0.484375 -1.859375 0.4375 -7.8125q-3.984375 4.703125 -9.953125 4.703125q-7.40625 0 -11.4687805 -5.34375q-4.0625 -5.359375 -4.0625 -12.828125q0 -5.15625 1.859375 -9.5q1.859375 -4.359375 5.3906555 -6.71875q3.546875 -2.375 8.328125 -2.375q6.359375 0 10.484375 5.140625l0 -4.328125l5.625 0l0 31.078125q0 8.390625 -1.71875 11.890625q-1.703125 3.515625 -5.40625 5.546875q-3.703125 2.03125 -9.125 2.03125q-6.4375 0 -10.40625 -2.90625q-3.9531555 -2.890625 -3.8125305 -8.703125zm5.0469055 -21.609375q0 7.078125 2.796875 10.328125q2.8125 3.25 7.046875 3.25q4.203125 0 7.046875 -3.234375q2.84375 -3.234375 2.84375 -10.140625q0 -6.59375 -2.9375 -9.9375q-2.921875 -3.359375 -7.046875 -3.359375q-4.0625 0 -6.90625 3.296875q-2.84375 3.296875 -2.84375 9.796875zm34.619446 18.625l0 -35.953125l5.453125 0l0 5.046875q1.703125 -2.640625 4.5 -4.25q2.8125 -1.609375 6.40625 -1.609375q4.0 0 6.546875 1.65625q2.5625 1.65625 3.609375 4.640625q4.265625 -6.296875 11.09375 -6.296875q5.359375 0 8.234375 2.96875q2.875 2.953125 2.875 9.125l0 24.671875l-6.0625 0l0 -22.640625q0 -3.65625 -0.59375 -5.265625q-0.59375 -1.609375 -2.15625 -2.59375q-1.546875 -0.984375 -3.640625 -0.984375q-3.796875 0 -6.296875 2.53125q-2.5 2.515625 -2.5 8.0625l0 20.890625l-6.09375 0l0 -23.359375q0 -4.0625 -1.5 -6.09375q-1.484375 -2.03125 -4.875 -2.03125q-2.5625 0 -4.75 1.359375q-2.1875 1.34375 -3.171875 3.953125q-0.984375 2.609375 -0.984375 7.515625l0 18.65625l-6.09375 0zm82.375854 -11.578125l6.28125 0.78125q-1.484375 5.515625 -5.515625 8.5625q-4.015625 3.046875 -10.28125 3.046875q-7.890625 0 -12.515625 -4.859375q-4.625 -4.859375 -4.625 -13.625q0 -9.078125 4.671875 -14.078125q4.671875 -5.015625 12.125 -5.015625q7.21875 0 11.78125 4.90625q4.5625 4.90625 4.5625 13.8125q0 0.546875 -0.03125 1.625l-26.8125 0q0.34375 5.921875 3.359375 9.078125q3.015625 3.140625 7.515625 3.140625q3.34375 0 5.71875 -1.75q2.375 -1.765625 3.765625 -5.625zm-20.015625 -9.84375l20.078125 0q-0.40625 -4.546875 -2.296875 -6.8125q-2.921875 -3.515625 -7.5625 -3.515625q-4.1875 0 -7.046875 2.8125q-2.859375 2.796875 -3.171875 7.515625zm33.94763 21.421875l0 -35.953125l5.484375 0l0 5.109375q3.96875 -5.921875 11.453125 -5.921875q3.25 0 5.96875 1.171875q2.734375 1.171875 4.078125 3.0625q1.359375 1.890625 1.90625 4.5q0.328125 1.6875 0.328125 5.921875l0 22.109375l-6.09375 0l0 -21.875q0 -3.71875 -0.71875 -5.5625q-0.703125 -1.84375 -2.515625 -2.9375q-1.8125 -1.109375 -4.25 -1.109375q-3.890625 0 -6.71875 2.46875q-2.828125 2.46875 -2.828125 9.375l0 19.640625l-6.09375 0zm51.869507 -5.453125l0.875 5.390625q-2.5625 0.53125 -4.59375 0.53125q-3.328125 0 -5.15625 -1.046875q-1.828125 -1.046875 -2.578125 -2.75q-0.734375 -1.71875 -0.734375 -7.203125l0 -20.6875l-4.46875 0l0 -4.734375l4.46875 0l0 -8.90625l6.0625 -3.65625l0 12.5625l6.125 0l0 4.734375l-6.125 0l0 21.03125q0 2.609375 0.3125 3.359375q0.328125 0.734375 1.046875 1.171875q0.734375 0.4375 2.09375 0.4375q1.015625 0 2.671875 -0.234375zm29.417847 1.015625q-3.390625 2.875 -6.53125 4.0625q-3.125 1.1875 -6.703125 1.1875q-5.921875 0 -9.109375 -2.890625q-3.1875 -2.890625 -3.1875 -7.40625q0 -2.640625 1.203125 -4.8125q1.203125 -2.1875 3.140625 -3.5q1.953125 -1.328125 4.390625 -2.0q1.796875 -0.484375 5.421875 -0.921875q7.375 -0.875 10.859375 -2.09375q0.046875 -1.25 0.046875 -1.59375q0 -3.71875 -1.734375 -5.25q-2.328125 -2.0625 -6.9375 -2.0625q-4.296875 0 -6.34375 1.515625q-2.046875 1.5 -3.03125 5.328125l-5.96875 -0.8125q0.8125 -3.828125 2.671875 -6.171875q1.875 -2.359375 5.390625 -3.625q3.515625 -1.28125 8.15625 -1.28125q4.609375 0 7.484375 1.09375q2.875 1.078125 4.234375 2.71875q1.359375 1.640625 1.890625 4.140625q0.3125 1.5625 0.3125 5.625l0 8.125q0 8.5 0.390625 10.75q0.390625 2.25 1.53125 4.3125l-6.359375 0q-0.953125 -1.890625 -1.21875 -4.4375zm-0.515625 -13.609375q-3.3125 1.359375 -9.953125 2.3125q-3.75 0.53125 -5.3125 1.21875q-1.546875 0.671875 -2.40625 1.984375q-0.84375 1.296875 -0.84375 2.890625q0 2.4375 1.84375 4.0625q1.84375 1.625 5.40625 1.625q3.515625 0 6.25 -1.546875q2.75 -1.546875 4.046875 -4.21875q0.96875 -2.0625 0.96875 -6.09375l0 -2.234375zm28.916382 12.59375l0.875 5.390625q-2.5625 0.53125 -4.59375 0.53125q-3.328125 0 -5.15625 -1.046875q-1.828125 -1.046875 -2.578125 -2.75q-0.734375 -1.71875 -0.734375 -7.203125l0 -20.6875l-4.46875 0l0 -4.734375l4.46875 0l0 -8.90625l6.0625 -3.65625l0 12.5625l6.125 0l0 4.734375l-6.125 0l0 21.03125q0 2.609375 0.3125 3.359375q0.328125 0.734375 1.046875 1.171875q0.734375 0.4375 2.09375 0.4375q1.015625 0 2.671875 -0.234375zm5.9959717 -37.171875l0 -7.0l6.09375 0l0 7.0l-6.09375 0zm0 42.625l0 -35.953125l6.09375 0l0 35.953125l-6.09375 0zm13.090088 -17.96875q0 -10.0 5.5625 -14.796875q4.625 -4.0 11.296875 -4.0q7.421875 0 12.125 4.859375q4.703125 4.859375 4.703125 13.421875q0 6.9375 -2.078125 10.921875q-2.078125 3.96875 -6.0625 6.171875q-3.984375 2.203125 -8.6875 2.203125q-7.546875 0 -12.203125 -4.84375q-4.65625 -4.84375 -4.65625 -13.9375zm6.265625 0q0 6.90625 3.015625 10.34375q3.015625 3.421875 7.578125 3.421875q4.546875 0 7.546875 -3.453125q3.015625 -3.453125 3.015625 -10.515625q0 -6.671875 -3.03125 -10.109375q-3.03125 -3.4375 -7.53125 -3.4375q-4.5625 0 -7.578125 3.421875q-3.015625 3.421875 -3.015625 10.328125zm34.557007 17.96875l0 -35.953125l5.484375 0l0 5.109375q3.96875 -5.921875 11.453125 -5.921875q3.25 0 5.96875 1.171875q2.734375 1.171875 4.078125 3.0625q1.359375 1.890625 1.90625 4.5q0.328125 1.6875 0.328125 5.921875l0 22.109375l-6.09375 0l0 -21.875q0 -3.71875 -0.71875 -5.5625q-0.703125 -1.84375 -2.515625 -2.9375q-1.8125 -1.109375 -4.25 -1.109375q-3.890625 0 -6.71875 2.46875q-2.828125 2.46875 -2.828125 9.375l0 19.640625l-6.09375 0z" fill-rule="nonzero"/><path fill="#000000" fill-opacity="0.0" d="m32.72441 297.54593l894.55115 0l0 124.91339l-894.55115 0z" fill-rule="evenodd"/><path fill="#2b535e" d="m415.14804 324.28674l0 -12.96875l-4.84375 0l0 -1.734375l11.640625 0l0 1.734375l-4.859375 0l0 12.96875l-1.9375 0zm13.577881 -3.421875l1.859375 0.21875q-0.4375 1.640625 -1.640625 2.546875q-1.1875 0.890625 -3.03125 0.890625q-2.34375 0 -3.71875 -1.4375q-1.359375 -1.4375 -1.359375 -4.03125q0 -2.6875 1.375 -4.171875q1.390625 -1.484375 3.59375 -1.484375q2.140625 0 3.484375 1.453125q1.359375 1.453125 1.359375 4.09375q0 0.15625 0 0.484375l-7.953125 0q0.109375 1.75 1.0 2.6875q0.890625 0.921875 2.21875 0.921875q1.0 0 1.703125 -0.515625q0.703125 -0.515625 1.109375 -1.65625zm-5.921875 -2.921875l5.9375 0q-0.109375 -1.34375 -0.671875 -2.015625q-0.859375 -1.046875 -2.234375 -1.046875q-1.25 0 -2.09375 0.84375q-0.84375 0.828125 -0.9375 2.21875zm11.715393 6.34375l-1.671875 0l0 -14.703125l1.796875 0l0 5.25q1.15625 -1.4375 2.921875 -1.4375q0.984375 0 1.859375 0.40625q0.875 0.390625 1.4375 1.109375q0.578125 0.71875 0.890625 1.734375q0.328125 1.0 0.328125 2.15625q0 2.734375 -1.359375 4.234375q-1.34375 1.484375 -3.25 1.484375q-1.875 0 -2.953125 -1.5625l0 1.328125zm-0.015625 -5.40625q0 1.921875 0.515625 2.765625q0.859375 1.390625 2.3125 1.390625q1.171875 0 2.03125 -1.015625q0.875 -1.03125 0.875 -3.0625q0 -2.09375 -0.828125 -3.078125q-0.828125 -1.0 -2.0 -1.0q-1.1875 0 -2.046875 1.03125q-0.859375 1.03125 -0.859375 2.96875zm16.715393 4.09375q-1.0 0.84375 -1.9375 1.203125q-0.921875 0.34375 -1.984375 0.34375q-1.75 0 -2.703125 -0.84375q-0.9375 -0.859375 -0.9375 -2.203125q0 -0.78125 0.359375 -1.421875q0.359375 -0.640625 0.9375 -1.03125q0.578125 -0.40625 1.296875 -0.59375q0.53125 -0.140625 1.609375 -0.28125q2.1875 -0.25 3.21875 -0.609375q0 -0.375 0 -0.484375q0 -1.09375 -0.5 -1.546875q-0.703125 -0.609375 -2.0625 -0.609375q-1.265625 0 -1.875 0.453125q-0.609375 0.4375 -0.90625 1.5625l-1.765625 -0.234375q0.25 -1.125 0.796875 -1.828125q0.546875 -0.703125 1.59375 -1.078125q1.046875 -0.375 2.421875 -0.375q1.359375 0 2.203125 0.328125q0.859375 0.3125 1.25 0.8125q0.40625 0.484375 0.578125 1.21875q0.078125 0.46875 0.078125 1.671875l0 2.390625q0 2.53125 0.109375 3.203125q0.125 0.65625 0.46875 1.265625l-1.890625 0q-0.28125 -0.5625 -0.359375 -1.3125zm-0.140625 -4.03125q-0.984375 0.40625 -2.953125 0.6875q-1.109375 0.15625 -1.578125 0.359375q-0.453125 0.203125 -0.703125 0.59375q-0.25 0.375 -0.25 0.84375q0 0.71875 0.546875 1.203125q0.546875 0.484375 1.59375 0.484375q1.046875 0 1.859375 -0.453125q0.8125 -0.453125 1.1875 -1.25q0.296875 -0.609375 0.296875 -1.8125l0 -0.65625zm3.8872375 2.171875l1.796875 -0.28125q0.140625 1.0625 0.828125 1.640625q0.6875 0.5625 1.921875 0.5625q1.25 0 1.84375 -0.5q0.609375 -0.5 0.609375 -1.1875q0 -0.609375 -0.53125 -0.96875q-0.375 -0.234375 -1.84375 -0.609375q-1.984375 -0.5 -2.765625 -0.859375q-0.765625 -0.375 -1.15625 -1.015625q-0.390625 -0.640625 -0.390625 -1.421875q0 -0.71875 0.3125 -1.328125q0.328125 -0.609375 0.890625 -1.0q0.421875 -0.3125 1.140625 -0.53125q0.734375 -0.21875 1.578125 -0.21875q1.25 0 2.1875 0.359375q0.953125 0.359375 1.40625 0.984375q0.453125 0.609375 0.625 1.640625l-1.765625 0.25q-0.125 -0.828125 -0.703125 -1.28125q-0.578125 -0.46875 -1.625 -0.46875q-1.25 0 -1.78125 0.421875q-0.53125 0.40625 -0.53125 0.953125q0 0.359375 0.21875 0.625q0.234375 0.296875 0.703125 0.484375q0.265625 0.109375 1.59375 0.46875q1.90625 0.515625 2.65625 0.84375q0.765625 0.3125 1.1875 0.9375q0.4375 0.625 0.4375 1.546875q0 0.90625 -0.53125 1.703125q-0.515625 0.796875 -1.515625 1.234375q-0.984375 0.421875 -2.234375 0.421875q-2.078125 0 -3.171875 -0.859375q-1.078125 -0.859375 -1.390625 -2.546875zm16.87613 3.171875l0 -14.703125l2.921875 0l3.484375 10.40625q0.46875 1.453125 0.6875 2.1875q0.25 -0.8125 0.78125 -2.359375l3.53125 -10.234375l2.609375 0l0 14.703125l-1.875 0l0 -12.296875l-4.265625 12.296875l-1.75 0l-4.25 -12.515625l0 12.515625l-1.875 0zm23.868286 -1.3125q-1.0 0.84375 -1.9375 1.203125q-0.921875 0.34375 -1.984375 0.34375q-1.75 0 -2.703125 -0.84375q-0.9375 -0.859375 -0.9375 -2.203125q0 -0.78125 0.359375 -1.421875q0.359375 -0.640625 0.9375 -1.03125q0.578125 -0.40625 1.296875 -0.59375q0.53125 -0.140625 1.609375 -0.28125q2.1875 -0.25 3.21875 -0.609375q0 -0.375 0 -0.484375q0 -1.09375 -0.5 -1.546875q-0.703125 -0.609375 -2.0625 -0.609375q-1.265625 0 -1.875 0.453125q-0.609375 0.4375 -0.90625 1.5625l-1.765625 -0.234375q0.25 -1.125 0.796875 -1.828125q0.546875 -0.703125 1.59375 -1.078125q1.046875 -0.375 2.421875 -0.375q1.359375 0 2.203125 0.328125q0.859375 0.3125 1.25 0.8125q0.40625 0.484375 0.578125 1.21875q0.078125 0.46875 0.078125 1.671875l0 2.390625q0 2.53125 0.109375 3.203125q0.125 0.65625 0.46875 1.265625l-1.890625 0q-0.28125 -0.5625 -0.359375 -1.3125zm-0.140625 -4.03125q-0.984375 0.40625 -2.953125 0.6875q-1.109375 0.15625 -1.578125 0.359375q-0.453125 0.203125 -0.703125 0.59375q-0.25 0.375 -0.25 0.84375q0 0.71875 0.546875 1.203125q0.546875 0.484375 1.59375 0.484375q1.046875 0 1.859375 -0.453125q0.8125 -0.453125 1.1875 -1.25q0.296875 -0.609375 0.296875 -1.8125l0 -0.65625zm4.590393 5.34375l0 -10.640625l1.625 0l0 1.609375q0.625 -1.140625 1.140625 -1.5q0.53125 -0.359375 1.171875 -0.359375q0.90625 0 1.859375 0.578125l-0.625 1.6875q-0.671875 -0.390625 -1.328125 -0.390625q-0.59375 0 -1.0625 0.359375q-0.46875 0.34375 -0.671875 0.984375q-0.296875 0.953125 -0.296875 2.09375l0 5.578125l-1.8125 0zm10.805817 -1.609375l0.25 1.59375q-0.75 0.15625 -1.359375 0.15625q-0.984375 0 -1.53125 -0.3125q-0.53125 -0.3125 -0.75 -0.8125q-0.21875 -0.515625 -0.21875 -2.140625l0 -6.125l-1.328125 0l0 -1.390625l1.328125 0l0 -2.640625l1.796875 -1.078125l0 3.71875l1.8125 0l0 1.390625l-1.8125 0l0 6.234375q0 0.765625 0.09375 1.0q0.09375 0.21875 0.296875 0.34375q0.21875 0.125 0.625 0.125q0.296875 0 0.796875 -0.0625zm2.3917847 1.609375l0 -10.640625l1.8125 0l0 10.640625l-1.8125 0zm-0.09375 -11.96875l1.34375 -2.8125l2.359375 0l-2.203125 2.8125l-1.5 0zm5.1729736 11.96875l0 -10.640625l1.625 0l0 1.515625q1.171875 -1.765625 3.375 -1.765625q0.96875 0 1.765625 0.34375q0.8125 0.34375 1.21875 0.90625q0.40625 0.5625 0.5625 1.34375q0.09375 0.5 0.09375 1.75l0 6.546875l-1.796875 0l0 -6.46875q0 -1.109375 -0.21875 -1.65625q-0.203125 -0.546875 -0.75 -0.875q-0.53125 -0.328125 -1.25 -0.328125q-1.15625 0 -2.0 0.734375q-0.828125 0.734375 -0.828125 2.78125l0 5.8125l-1.796875 0zm18.699768 -3.421875l1.859375 0.21875q-0.4375 1.640625 -1.640625 2.546875q-1.1875 0.890625 -3.03125 0.890625q-2.34375 0 -3.71875 -1.4375q-1.359375 -1.4375 -1.359375 -4.03125q0 -2.6875 1.375 -4.171875q1.390625 -1.484375 3.59375 -1.484375q2.140625 0 3.484375 1.453125q1.359375 1.453125 1.359375 4.09375q0 0.15625 0 0.484375l-7.953125 0q0.109375 1.75 1.0 2.6875q0.890625 0.921875 2.21875 0.921875q1.0 0 1.703125 -0.515625q0.703125 -0.515625 1.109375 -1.65625zm-5.921875 -2.921875l5.9375 0q-0.109375 -1.34375 -0.671875 -2.015625q-0.859375 -1.046875 -2.234375 -1.046875q-1.25 0 -2.09375 0.84375q-0.84375 0.828125 -0.9375 2.21875zm9.105957 6.34375l0 -1.46875l6.765686 -7.78125q-1.140625 0.0625 -2.03125 0.0625l-4.343811 0l0 -1.453125l8.703186 0l0 1.1875l-5.765686 6.75l-1.109375 1.234375q1.21875 -0.078125 2.281311 -0.078125l4.921875 0l0 1.546875l-9.421936 0z" fill-rule="nonzero"/><path fill="#2b535e" d="m319.30603 368.63873l0 -14.703125l1.9375 0l0 14.703125l-1.9375 0zm5.110504 0l0 -10.640625l1.625 0l0 1.609375q0.625 -1.140625 1.140625 -1.5q0.53125 -0.359375 1.171875 -0.359375q0.90625 0 1.859375 0.578125l-0.625 1.6875q-0.671875 -0.390625 -1.328125 -0.390625q-0.59375 0 -1.0625 0.359375q-0.46875 0.34375 -0.671875 0.984375q-0.296875 0.953125 -0.296875 2.09375l0 5.578125l-1.8125 0zm6.196411 -5.328125q0 -2.953125 1.640625 -4.375q1.375 -1.1875 3.34375 -1.1875q2.203125 0 3.59375 1.4375q1.390625 1.4375 1.390625 3.984375q0 2.046875 -0.625 3.234375q-0.609375 1.171875 -1.796875 1.828125q-1.171875 0.640625 -2.5625 0.640625q-2.234375 0 -3.609375 -1.421875q-1.375 -1.4375 -1.375 -4.140625zm1.84375 0q0 2.046875 0.890625 3.0625q0.90625 1.015625 2.25 1.015625q1.34375 0 2.234375 -1.015625q0.890625 -1.015625 0.890625 -3.125q0 -1.96875 -0.90625 -2.984375q-0.890625 -1.015625 -2.21875 -1.015625q-1.34375 0 -2.25 1.015625q-0.890625 1.0 -0.890625 3.046875zm10.246643 5.328125l0 -10.640625l1.625 0l0 1.515625q1.171875 -1.765625 3.375 -1.765625q0.96875 0 1.765625 0.34375q0.8125 0.34375 1.21875 0.90625q0.40625 0.5625 0.5625 1.34375q0.09375 0.5 0.09375 1.75l0 6.546875l-1.796875 0l0 -6.46875q0 -1.109375 -0.21875 -1.65625q-0.203125 -0.546875 -0.75 -0.875q-0.53125 -0.328125 -1.25 -0.328125q-1.15625 0 -2.0 0.734375q-0.828125 0.734375 -0.828125 2.78125l0 5.8125l-1.796875 0zm11.418518 0l0 -14.703125l1.796875 0l0 5.28125q1.265625 -1.46875 3.1875 -1.46875q1.1875 0 2.046875 0.46875q0.875 0.46875 1.25 1.296875q0.390625 0.8125 0.390625 2.375l0 6.75l-1.8125 0l0 -6.75q0 -1.34375 -0.59375 -1.953125q-0.578125 -0.625 -1.65625 -0.625q-0.796875 0 -1.5 0.421875q-0.703125 0.40625 -1.015625 1.125q-0.296875 0.703125 -0.296875 1.953125l0 5.828125l-1.796875 0zm18.355988 -1.3125q-1.0 0.84375 -1.9375 1.203125q-0.921875 0.34375 -1.984375 0.34375q-1.75 0 -2.703125 -0.84375q-0.9375 -0.859375 -0.9375 -2.203125q0 -0.78125 0.359375 -1.421875q0.359375 -0.640625 0.9375 -1.03125q0.578125 -0.40625 1.296875 -0.59375q0.53125 -0.140625 1.609375 -0.28125q2.1875 -0.25 3.21875 -0.609375q0 -0.375 0 -0.484375q0 -1.09375 -0.5 -1.546875q-0.703125 -0.609375 -2.0625 -0.609375q-1.265625 0 -1.875 0.453125q-0.609375 0.4375 -0.90625 1.5625l-1.765625 -0.234375q0.25 -1.125 0.796875 -1.828125q0.546875 -0.703125 1.59375 -1.078125q1.046875 -0.375 2.421875 -0.375q1.359375 0 2.203125 0.328125q0.859375 0.3125 1.25 0.8125q0.40625 0.484375 0.578125 1.21875q0.078125 0.46875 0.078125 1.671875l0 2.390625q0 2.53125 0.109375 3.203125q0.125 0.65625 0.46875 1.265625l-1.890625 0q-0.28125 -0.5625 -0.359375 -1.3125zm-0.140625 -4.03125q-0.984375 0.40625 -2.953125 0.6875q-1.109375 0.15625 -1.578125 0.359375q-0.453125 0.203125 -0.703125 0.59375q-0.25 0.375 -0.25 0.84375q0 0.71875 0.546875 1.203125q0.546875 0.484375 1.59375 0.484375q1.046875 0 1.859375 -0.453125q0.8125 -0.453125 1.1875 -1.25q0.296875 -0.609375 0.296875 -1.8125l0 -0.65625zm11.559113 1.4375l1.78125 0.234375q-0.296875 1.84375 -1.5 2.875q-1.1875 1.03125 -2.9375 1.03125q-2.1875 0 -3.515625 -1.421875q-1.328125 -1.421875 -1.328125 -4.09375q0 -1.71875 0.5625 -3.015625q0.578125 -1.296875 1.75 -1.9375q1.171875 -0.65625 2.546875 -0.65625q1.734375 0 2.828125 0.890625q1.109375 0.875 1.421875 2.484375l-1.75 0.265625q-0.25 -1.078125 -0.890625 -1.609375q-0.640625 -0.546875 -1.546875 -0.546875q-1.359375 0 -2.21875 0.984375q-0.84375 0.96875 -0.84375 3.09375q0 2.140625 0.8125 3.109375q0.828125 0.96875 2.15625 0.96875q1.0625 0 1.765625 -0.640625q0.71875 -0.65625 0.90625 -2.015625zm3.328125 3.90625l0 -14.703125l1.8125 0l0 8.390625l4.265625 -4.328125l2.34375 0l-4.078125 3.9375l4.484375 6.703125l-2.234375 0l-3.515625 -5.4375l-1.265625 1.21875l0 4.21875l-1.8125 0zm15.266754 -4.40625l0 -1.8125l5.546875 0l0 1.8125l-5.546875 0zm13.463165 4.40625l0 -14.703125l5.0625 0q1.71875 0 2.625 0.21875q1.265625 0.28125 2.15625 1.046875q1.15625 0.984375 1.734375 2.515625q0.578125 1.53125 0.578125 3.5q0 1.671875 -0.390625 2.96875q-0.390625 1.28125 -1.0 2.140625q-0.609375 0.84375 -1.34375 1.328125q-0.71875 0.484375 -1.75 0.734375q-1.03125 0.25 -2.359375 0.25l-5.3125 0zm1.953125 -1.734375l3.140625 0q1.453125 0 2.28125 -0.265625q0.828125 -0.28125 1.3125 -0.765625q0.6875 -0.6875 1.078125 -1.859375q0.390625 -1.171875 0.390625 -2.828125q0 -2.3125 -0.765625 -3.546875q-0.75 -1.234375 -1.84375 -1.65625q-0.78125 -0.3125 -2.515625 -0.3125l-3.078125 0l0 11.234375zm19.592651 0.421875q-1.0 0.84375 -1.9375 1.203125q-0.921875 0.34375 -1.984375 0.34375q-1.75 0 -2.703125 -0.84375q-0.9375 -0.859375 -0.9375 -2.203125q0 -0.78125 0.359375 -1.421875q0.359375 -0.640625 0.9375 -1.03125q0.578125 -0.40625 1.296875 -0.59375q0.53125 -0.140625 1.609375 -0.28125q2.1875 -0.25 3.21875 -0.609375q0 -0.375 0 -0.484375q0 -1.09375 -0.5 -1.546875q-0.703125 -0.609375 -2.0625 -0.609375q-1.265625 0 -1.875 0.453125q-0.609375 0.4375 -0.90625 1.5625l-1.765625 -0.234375q0.25 -1.125 0.796875 -1.828125q0.546875 -0.703125 1.59375 -1.078125q1.046875 -0.375 2.421875 -0.375q1.359375 0 2.203125 0.328125q0.859375 0.3125 1.25 0.8125q0.40625 0.484375 0.578125 1.21875q0.078125 0.46875 0.078125 1.671875l0 2.390625q0 2.53125 0.109375 3.203125q0.125 0.65625 0.46875 1.265625l-1.890625 0q-0.28125 -0.5625 -0.359375 -1.3125zm-0.140625 -4.03125q-0.984375 0.40625 -2.953125 0.6875q-1.109375 0.15625 -1.578125 0.359375q-0.453125 0.203125 -0.703125 0.59375q-0.25 0.375 -0.25 0.84375q0 0.71875 0.546875 1.203125q0.546875 0.484375 1.59375 0.484375q1.046875 0 1.859375 -0.453125q0.8125 -0.453125 1.1875 -1.25q0.296875 -0.609375 0.296875 -1.8125l0 -0.65625zm8.559143 3.734375l0.25 1.59375q-0.75 0.15625 -1.359375 0.15625q-0.984375 0 -1.53125 -0.3125q-0.53125 -0.3125 -0.75 -0.8125q-0.21875 -0.515625 -0.21875 -2.140625l0 -6.125l-1.328125 0l0 -1.390625l1.328125 0l0 -2.640625l1.796875 -1.078125l0 3.71875l1.8125 0l0 1.390625l-1.8125 0l0 6.234375q0 0.765625 0.09375 1.0q0.09375 0.21875 0.296875 0.34375q0.21875 0.125 0.625 0.125q0.296875 0 0.796875 -0.0625zm8.704224 0.296875q-1.0 0.84375 -1.9375 1.203125q-0.921875 0.34375 -1.984375 0.34375q-1.75 0 -2.703125 -0.84375q-0.9375 -0.859375 -0.9375 -2.203125q0 -0.78125 0.359375 -1.421875q0.359375 -0.640625 0.9375 -1.03125q0.578125 -0.40625 1.296875 -0.59375q0.53125 -0.140625 1.609375 -0.28125q2.1875 -0.25 3.21875 -0.609375q0 -0.375 0 -0.484375q0 -1.09375 -0.5 -1.546875q-0.703125 -0.609375 -2.0625 -0.609375q-1.265625 0 -1.875 0.453125q-0.609375 0.4375 -0.90625 1.5625l-1.765625 -0.234375q0.25 -1.125 0.796875 -1.828125q0.546875 -0.703125 1.59375 -1.078125q1.046875 -0.375 2.421875 -0.375q1.359375 0 2.203125 0.328125q0.859375 0.3125 1.25 0.8125q0.40625 0.484375 0.578125 1.21875q0.078125 0.46875 0.078125 1.671875l0 2.390625q0 2.53125 0.109375 3.203125q0.125 0.65625 0.46875 1.265625l-1.890625 0q-0.28125 -0.5625 -0.359375 -1.3125zm-0.140625 -4.03125q-0.984375 0.40625 -2.953125 0.6875q-1.109375 0.15625 -1.578125 0.359375q-0.453125 0.203125 -0.703125 0.59375q-0.25 0.375 -0.25 0.84375q0 0.71875 0.546875 1.203125q0.546875 0.484375 1.59375 0.484375q1.046875 0 1.859375 -0.453125q0.8125 -0.453125 1.1875 -1.25q0.296875 -0.609375 0.296875 -1.8125l0 -0.65625zm7.802307 5.34375l5.640625 -14.703125l2.09375 0l6.015625 14.703125l-2.203125 0l-1.71875 -4.453125l-6.140625 0l-1.625 4.453125l-2.0625 0zm4.234375 -6.03125l4.984375 0l-1.53125 -4.078125q-0.703125 -1.84375 -1.046875 -3.046875q-0.28125 1.421875 -0.78125 2.8125l-1.625 4.3125zm10.850403 6.03125l0 -10.640625l1.625 0l0 1.515625q1.171875 -1.765625 3.375 -1.765625q0.96875 0 1.765625 0.34375q0.8125 0.34375 1.21875 0.90625q0.40625 0.5625 0.5625 1.34375q0.09375 0.5 0.09375 1.75l0 6.546875l-1.796875 0l0 -6.46875q0 -1.109375 -0.21875 -1.65625q-0.203125 -0.546875 -0.75 -0.875q-0.53125 -0.328125 -1.25 -0.328125q-1.15625 0 -2.0 0.734375q-0.828125 0.734375 -0.828125 2.78125l0 5.8125l-1.796875 0zm18.356018 -1.3125q-1.0 0.84375 -1.9375 1.203125q-0.921875 0.34375 -1.984375 0.34375q-1.75 0 -2.703125 -0.84375q-0.9375 -0.859375 -0.9375 -2.203125q0 -0.78125 0.359375 -1.421875q0.359375 -0.640625 0.9375 -1.03125q0.578125 -0.40625 1.296875 -0.59375q0.53125 -0.140625 1.609375 -0.28125q2.1875 -0.25 3.21875 -0.609375q0 -0.375 0 -0.484375q0 -1.09375 -0.5 -1.546875q-0.703125 -0.609375 -2.0625 -0.609375q-1.265625 0 -1.875 0.453125q-0.609375 0.4375 -0.90625 1.5625l-1.765625 -0.234375q0.25 -1.125 0.796875 -1.828125q0.546875 -0.703125 1.59375 -1.078125q1.046875 -0.375 2.421875 -0.375q1.359375 0 2.203125 0.328125q0.859375 0.3125 1.25 0.8125q0.40625 0.484375 0.578125 1.21875q0.078125 0.46875 0.078125 1.671875l0 2.390625q0 2.53125 0.109375 3.203125q0.125 0.65625 0.46875 1.265625l-1.890625 0q-0.28125 -0.5625 -0.359375 -1.3125zm-0.140625 -4.03125q-0.984375 0.40625 -2.953125 0.6875q-1.109375 0.15625 -1.578125 0.359375q-0.453125 0.203125 -0.703125 0.59375q-0.25 0.375 -0.25 0.84375q0 0.71875 0.546875 1.203125q0.546875 0.484375 1.59375 0.484375q1.046875 0 1.859375 -0.453125q0.8125 -0.453125 1.1875 -1.25q0.296875 -0.609375 0.296875 -1.8125l0 -0.65625zm4.574768 5.34375l0 -14.703125l1.8125 0l0 14.703125l-1.8125 0zm4.514496 4.09375l-0.1875 -1.6875q0.59375 0.15625 1.03125 0.15625q0.59375 0 0.953125 -0.203125q0.359375 -0.1875 0.59375 -0.5625q0.171875 -0.265625 0.546875 -1.328125q0.0625 -0.15625 0.171875 -0.453125l-4.046875 -10.65625l1.953125 0l2.203125 6.15625q0.4375 1.171875 0.78125 2.46875q0.3125 -1.25 0.734375 -2.421875l2.28125 -6.203125l1.796875 0l-4.046875 10.828125q-0.640625 1.75 -1.015625 2.40625q-0.46875 0.890625 -1.09375 1.3125q-0.625 0.421875 -1.484375 0.421875q-0.515625 0 -1.171875 -0.234375zm14.296875 -5.703125l0.25 1.59375q-0.75 0.15625 -1.359375 0.15625q-0.984375 0 -1.53125 -0.3125q-0.53125 -0.3125 -0.75 -0.8125q-0.21875 -0.515625 -0.21875 -2.140625l0 -6.125l-1.328125 0l0 -1.390625l1.328125 0l0 -2.640625l1.796875 -1.078125l0 3.71875l1.8125 0l0 1.390625l-1.8125 0l0 6.234375q0 0.765625 0.09375 1.0q0.09375 0.21875 0.296875 0.34375q0.21875 0.125 0.625 0.125q0.296875 0 0.796875 -0.0625zm1.7667847 -11.015625l0 -2.078125l1.8125 0l0 2.078125l-1.8125 0zm0 12.625l0 -10.640625l1.8125 0l0 10.640625l-1.8125 0zm11.49884 -3.90625l1.78125 0.234375q-0.296875 1.84375 -1.5 2.875q-1.1875 1.03125 -2.9375 1.03125q-2.1875 0 -3.515625 -1.421875q-1.328125 -1.421875 -1.328125 -4.09375q0 -1.71875 0.5625 -3.015625q0.578125 -1.296875 1.75 -1.9375q1.171875 -0.65625 2.546875 -0.65625q1.734375 0 2.828125 0.890625q1.109375 0.875 1.421875 2.484375l-1.75 0.265625q-0.25 -1.078125 -0.890625 -1.609375q-0.640625 -0.546875 -1.546875 -0.546875q-1.359375 0 -2.21875 0.984375q-0.84375 0.96875 -0.84375 3.09375q0 2.140625 0.8125 3.109375q0.828125 0.96875 2.15625 0.96875q1.0625 0 1.765625 -0.640625q0.71875 -0.65625 0.90625 -2.015625zm2.59375 0.734375l1.796875 -0.28125q0.140625 1.0625 0.828125 1.640625q0.6875 0.5625 1.921875 0.5625q1.25 0 1.84375 -0.5q0.609375 -0.5 0.609375 -1.1875q0 -0.609375 -0.53125 -0.96875q-0.375 -0.234375 -1.84375 -0.609375q-1.984375 -0.5 -2.765625 -0.859375q-0.765625 -0.375 -1.15625 -1.015625q-0.390625 -0.640625 -0.390625 -1.421875q0 -0.71875 0.3125 -1.328125q0.328125 -0.609375 0.890625 -1.0q0.421875 -0.3125 1.140625 -0.53125q0.734375 -0.21875 1.578125 -0.21875q1.25 0 2.1875 0.359375q0.953125 0.359375 1.40625 0.984375q0.453125 0.609375 0.625 1.640625l-1.765625 0.25q-0.125 -0.828125 -0.703125 -1.28125q-0.578125 -0.46875 -1.625 -0.46875q-1.25 0 -1.78125 0.421875q-0.53125 0.40625 -0.53125 0.953125q0 0.359375 0.21875 0.625q0.234375 0.296875 0.703125 0.484375q0.265625 0.109375 1.59375 0.46875q1.90625 0.515625 2.65625 0.84375q0.765625 0.3125 1.1875 0.9375q0.4375 0.625 0.4375 1.546875q0 0.90625 -0.53125 1.703125q-0.515625 0.796875 -1.515625 1.234375q-0.984375 0.421875 -2.234375 0.421875q-2.078125 0 -3.171875 -0.859375q-1.078125 -0.859375 -1.390625 -2.546875zm16.84491 3.171875l0 -14.703125l5.515625 0q1.6875 0 2.703125 0.453125q1.015625 0.453125 1.59375 1.375q0.578125 0.921875 0.578125 1.9375q0 0.9375 -0.515625 1.78125q-0.515625 0.828125 -1.546875 1.34375q1.34375 0.390625 2.046875 1.328125q0.71875 0.9375 0.71875 2.21875q0 1.03125 -0.4375 1.921875q-0.421875 0.890625 -1.0625 1.375q-0.640625 0.484375 -1.609375 0.734375q-0.96875 0.234375 -2.375 0.234375l-5.609375 0zm1.953125 -8.515625l3.171875 0q1.296875 0 1.859375 -0.171875q0.734375 -0.21875 1.109375 -0.734375q0.375 -0.515625 0.375 -1.28125q0 -0.734375 -0.359375 -1.28125q-0.34375 -0.5625 -1.0 -0.765625q-0.640625 -0.21875 -2.21875 -0.21875l-2.9375 0l0 4.453125zm0 6.78125l3.65625 0q0.9375 0 1.328125 -0.0625q0.671875 -0.125 1.109375 -0.40625q0.453125 -0.28125 0.75 -0.8125q0.296875 -0.546875 0.296875 -1.25q0 -0.8125 -0.421875 -1.421875q-0.421875 -0.609375 -1.171875 -0.84375q-0.75 -0.25 -2.15625 -0.25l-3.390625 0l0 5.046875zm10.928528 -3.59375q0 -2.953125 1.640625 -4.375q1.375 -1.1875 3.34375 -1.1875q2.203125 0 3.59375 1.4375q1.390625 1.4375 1.390625 3.984375q0 2.046875 -0.625 3.234375q-0.609375 1.171875 -1.796875 1.828125q-1.171875 0.640625 -2.5625 0.640625q-2.234375 0 -3.609375 -1.421875q-1.375 -1.4375 -1.375 -4.140625zm1.84375 0q0 2.046875 0.890625 3.0625q0.90625 1.015625 2.25 1.015625q1.34375 0 2.234375 -1.015625q0.890625 -1.015625 0.890625 -3.125q0 -1.96875 -0.90625 -2.984375q-0.890625 -1.015625 -2.21875 -1.015625q-1.34375 0 -2.25 1.015625q-0.890625 1.0 -0.890625 3.046875zm9.574768 0q0 -2.953125 1.640625 -4.375q1.375 -1.1875 3.34375 -1.1875q2.203125 0 3.59375 1.4375q1.390625 1.4375 1.390625 3.984375q0 2.046875 -0.625 3.234375q-0.609375 1.171875 -1.796875 1.828125q-1.171875 0.640625 -2.5625 0.640625q-2.234375 0 -3.609375 -1.421875q-1.375 -1.4375 -1.375 -4.140625zm1.84375 0q0 2.046875 0.890625 3.0625q0.90625 1.015625 2.25 1.015625q1.34375 0 2.234375 -1.015625q0.890625 -1.015625 0.890625 -3.125q0 -1.96875 -0.90625 -2.984375q-0.890625 -1.015625 -2.21875 -1.015625q-1.34375 0 -2.25 1.015625q-0.890625 1.0 -0.890625 3.046875zm14.184143 3.71875l0.25 1.59375q-0.75 0.15625 -1.359375 0.15625q-0.984375 0 -1.53125 -0.3125q-0.53125 -0.3125 -0.75 -0.8125q-0.21875 -0.515625 -0.21875 -2.140625l0 -6.125l-1.328125 0l0 -1.390625l1.328125 0l0 -2.640625l1.796875 -1.078125l0 3.71875l1.8125 0l0 1.390625l-1.8125 0l0 6.234375q0 0.765625 0.09375 1.0q0.09375 0.21875 0.296875 0.34375q0.21875 0.125 0.625 0.125q0.296875 0 0.796875 -0.0625zm8.704224 -2.296875l1.78125 0.234375q-0.296875 1.84375 -1.5 2.875q-1.1875 1.03125 -2.9375 1.03125q-2.1875 0 -3.515625 -1.421875q-1.328125 -1.421875 -1.328125 -4.09375q0 -1.71875 0.5625 -3.015625q0.578125 -1.296875 1.75 -1.9375q1.171875 -0.65625 2.546875 -0.65625q1.734375 0 2.828125 0.890625q1.109375 0.875 1.421875 2.484375l-1.75 0.265625q-0.25 -1.078125 -0.890625 -1.609375q-0.640625 -0.546875 -1.546875 -0.546875q-1.359375 0 -2.21875 0.984375q-0.84375 0.96875 -0.84375 3.09375q0 2.140625 0.8125 3.109375q0.828125 0.96875 2.15625 0.96875q1.0625 0 1.765625 -0.640625q0.71875 -0.65625 0.90625 -2.015625zm10.265625 2.59375q-1.0 0.84375 -1.9375 1.203125q-0.921875 0.34375 -1.984375 0.34375q-1.75 0 -2.703125 -0.84375q-0.9375 -0.859375 -0.9375 -2.203125q0 -0.78125 0.359375 -1.421875q0.359375 -0.640625 0.9375 -1.03125q0.578125 -0.40625 1.296875 -0.59375q0.53125 -0.140625 1.609375 -0.28125q2.1875 -0.25 3.21875 -0.609375q0 -0.375 0 -0.484375q0 -1.09375 -0.5 -1.546875q-0.703125 -0.609375 -2.0625 -0.609375q-1.265625 0 -1.875 0.453125q-0.609375 0.4375 -0.90625 1.5625l-1.765625 -0.234375q0.25 -1.125 0.796875 -1.828125q0.546875 -0.703125 1.59375 -1.078125q1.046875 -0.375 2.421875 -0.375q1.359375 0 2.203125 0.328125q0.859375 0.3125 1.25 0.8125q0.40625 0.484375 0.578125 1.21875q0.078125 0.46875 0.078125 1.671875l0 2.390625q0 2.53125 0.109375 3.203125q0.125 0.65625 0.46875 1.265625l-1.890625 0q-0.28125 -0.5625 -0.359375 -1.3125zm-0.140625 -4.03125q-0.984375 0.40625 -2.953125 0.6875q-1.109375 0.15625 -1.578125 0.359375q-0.453125 0.203125 -0.703125 0.59375q-0.25 0.375 -0.25 0.84375q0 0.71875 0.546875 1.203125q0.546875 0.484375 1.59375 0.484375q1.046875 0 1.859375 -0.453125q0.8125 -0.453125 1.1875 -1.25q0.296875 -0.609375 0.296875 -1.8125l0 -0.65625zm4.621582 5.34375l0 -10.640625l1.609375 0l0 1.484375q0.5 -0.78125 1.328125 -1.25q0.84375 -0.484375 1.90625 -0.484375q1.171875 0 1.921875 0.5q0.765625 0.484375 1.078125 1.375q1.265625 -1.875 3.28125 -1.875q1.59375 0 2.4375 0.890625q0.859375 0.875 0.859375 2.6875l0 7.3125l-1.796875 0l0 -6.703125q0 -1.09375 -0.171875 -1.5625q-0.171875 -0.46875 -0.640625 -0.765625q-0.453125 -0.296875 -1.078125 -0.296875q-1.125 0 -1.875 0.75q-0.734375 0.75 -0.734375 2.390625l0 6.1875l-1.8125 0l0 -6.921875q0 -1.203125 -0.4375 -1.796875q-0.4375 -0.609375 -1.4375 -0.609375q-0.765625 0 -1.421875 0.40625q-0.640625 0.40625 -0.9375 1.171875q-0.28125 0.765625 -0.28125 2.21875l0 5.53125l-1.796875 0zm17.102722 4.078125l0 -14.71875l1.640625 0l0 1.375q0.578125 -0.8125 1.3125 -1.21875q0.734375 -0.40625 1.765625 -0.40625q1.375 0 2.40625 0.703125q1.046875 0.703125 1.578125 1.984375q0.53125 1.28125 0.53125 2.796875q0 1.640625 -0.59375 2.953125q-0.578125 1.296875 -1.703125 2.0q-1.109375 0.6875 -2.34375 0.6875q-0.90625 0 -1.625 -0.375q-0.703125 -0.375 -1.171875 -0.96875l0 5.1875l-1.796875 0zm1.625 -9.34375q0 2.0625 0.828125 3.046875q0.84375 0.96875 2.015625 0.96875q1.203125 0 2.0625 -1.015625q0.859375 -1.015625 0.859375 -3.140625q0 -2.046875 -0.84375 -3.046875q-0.828125 -1.015625 -1.984375 -1.015625q-1.15625 0 -2.046875 1.078125q-0.890625 1.078125 -0.890625 3.125z" fill-rule="nonzero"/><path fill="#2b535e" d="m434.85922 407.10147l0 1.28125l-7.1875 0q-0.015625 -0.484375 0.15625 -0.921875q0.28125 -0.734375 0.875 -1.4375q0.609375 -0.71875 1.75 -1.65625q1.78125 -1.453125 2.40625 -2.296875q0.625 -0.859375 0.625 -1.609375q0 -0.796875 -0.578125 -1.34375q-0.5625 -0.546875 -1.46875 -0.546875q-0.96875 0 -1.546875 0.578125q-0.578125 0.578125 -0.59375 1.609375l-1.359375 -0.140625q0.140625 -1.546875 1.046875 -2.34375q0.921875 -0.8125 2.46875 -0.8125q1.578125 0 2.484375 0.875q0.90625 0.859375 0.90625 2.15625q0 0.640625 -0.265625 1.28125q-0.265625 0.625 -0.890625 1.328125q-0.609375 0.6875 -2.046875 1.90625q-1.203125 1.015625 -1.546875 1.375q-0.34375 0.359375 -0.5625 0.71875l5.328125 0zm8.446564 0l0 1.28125l-7.1875 0q-0.015625 -0.484375 0.15625 -0.921875q0.28125 -0.734375 0.875 -1.4375q0.609375 -0.71875 1.75 -1.65625q1.78125 -1.453125 2.40625 -2.296875q0.625 -0.859375 0.625 -1.609375q0 -0.796875 -0.578125 -1.34375q-0.5625 -0.546875 -1.46875 -0.546875q-0.96875 0 -1.546875 0.578125q-0.578125 0.578125 -0.59375 1.609375l-1.359375 -0.140625q0.140625 -1.546875 1.046875 -2.34375q0.921875 -0.8125 2.46875 -0.8125q1.578125 0 2.484375 0.875q0.90625 0.859375 0.90625 2.15625q0 0.640625 -0.265625 1.28125q-0.265625 0.625 -0.890625 1.328125q-0.609375 0.6875 -2.046875 1.90625q-1.203125 1.015625 -1.546875 1.375q-0.34375 0.359375 -0.5625 0.71875l5.328125 0zm4.171234 1.28125l4.171875 -10.875l1.546875 0l4.453125 10.875l-1.640625 0l-1.265625 -3.296875l-4.546875 0l-1.203125 3.296875l-1.515625 0zm3.125 -4.46875l3.6875 0l-1.125 -3.0q-0.53125 -1.375 -0.78125 -2.265625q-0.203125 1.046875 -0.578125 2.078125l-1.203125 3.1875zm13.176819 4.46875l0 -1.15625q-0.90625 1.328125 -2.5 1.328125q-0.6875 0 -1.296875 -0.265625q-0.609375 -0.265625 -0.90625 -0.671875q-0.28125 -0.40625 -0.40625 -0.984375q-0.078125 -0.390625 -0.078125 -1.25l0 -4.875l1.34375 0l0 4.375q0 1.03125 0.078125 1.40625q0.125 0.515625 0.53125 0.828125q0.40625 0.296875 1.015625 0.296875q0.59375 0 1.109375 -0.3125q0.53125 -0.3125 0.75 -0.828125q0.21875 -0.53125 0.21875 -1.546875l0 -4.21875l1.34375 0l0 7.875l-1.203125 0zm3.0402832 0.65625l1.296875 0.1875q0.09375 0.609375 0.453125 0.875q0.5 0.375 1.359375 0.375q0.9375 0 1.4375 -0.375q0.5 -0.375 0.6875 -1.03125q0.09375 -0.40625 0.09375 -1.71875q-0.875 1.03125 -2.1875 1.03125q-1.625 0 -2.515625 -1.171875q-0.890625 -1.171875 -0.890625 -2.8125q0 -1.125 0.40625 -2.078125q0.421875 -0.953125 1.1875 -1.46875q0.78125 -0.515625 1.828125 -0.515625q1.390625 0 2.296875 1.125l0 -0.953125l1.234375 0l0 6.8125q0 1.828125 -0.375 2.59375q-0.375 0.78125 -1.1875 1.21875q-0.8125 0.453125 -2.0 0.453125q-1.40625 0 -2.28125 -0.640625q-0.859375 -0.640625 -0.84375 -1.90625zm1.109375 -4.734375q0 1.546875 0.609375 2.265625q0.625 0.703125 1.546875 0.703125q0.921875 0 1.546875 -0.703125q0.625 -0.703125 0.625 -2.21875q0 -1.453125 -0.640625 -2.1875q-0.640625 -0.734375 -1.546875 -0.734375q-0.890625 0 -1.515625 0.734375q-0.625 0.71875 -0.625 2.140625zm12.743469 4.078125l0 -1.15625q-0.90625 1.328125 -2.5 1.328125q-0.6875 0 -1.296875 -0.265625q-0.609375 -0.265625 -0.90625 -0.671875q-0.28125 -0.40625 -0.40625 -0.984375q-0.078125 -0.390625 -0.078125 -1.25l0 -4.875l1.34375 0l0 4.375q0 1.03125 0.078125 1.40625q0.125 0.515625 0.53125 0.828125q0.40625 0.296875 1.015625 0.296875q0.59375 0 1.109375 -0.3125q0.53125 -0.3125 0.75 -0.828125q0.21875 -0.53125 0.21875 -1.546875l0 -4.21875l1.34375 0l0 7.875l-1.203125 0zm2.7590332 -2.34375l1.3125 -0.21875q0.125 0.796875 0.625 1.21875q0.515625 0.421875 1.421875 0.421875q0.921875 0 1.359375 -0.375q0.453125 -0.375 0.453125 -0.875q0 -0.453125 -0.390625 -0.71875q-0.28125 -0.171875 -1.375 -0.453125q-1.46875 -0.359375 -2.03125 -0.625q-0.5625 -0.28125 -0.859375 -0.75q-0.296875 -0.484375 -0.296875 -1.0625q0 -0.53125 0.234375 -0.96875q0.25 -0.453125 0.671875 -0.75q0.3125 -0.234375 0.84375 -0.390625q0.53125 -0.15625 1.15625 -0.15625q0.921875 0 1.625 0.265625q0.703125 0.265625 1.03125 0.71875q0.328125 0.453125 0.46875 1.21875l-1.3125 0.171875q-0.09375 -0.609375 -0.515625 -0.9375q-0.421875 -0.34375 -1.203125 -0.34375q-0.921875 0 -1.3125 0.3125q-0.390625 0.296875 -0.390625 0.703125q0 0.25 0.15625 0.46875q0.171875 0.21875 0.515625 0.359375q0.203125 0.0625 1.171875 0.328125q1.421875 0.390625 1.984375 0.625q0.5625 0.234375 0.875 0.703125q0.328125 0.453125 0.328125 1.140625q0 0.671875 -0.390625 1.265625q-0.390625 0.578125 -1.125 0.90625q-0.734375 0.3125 -1.671875 0.3125q-1.53125 0 -2.34375 -0.625q-0.796875 -0.640625 -1.015625 -1.890625zm11.046875 1.15625l0.1875 1.171875q-0.5625 0.125 -1.015625 0.125q-0.71875 0 -1.125 -0.234375q-0.390625 -0.234375 -0.5625 -0.609375q-0.15625 -0.375 -0.15625 -1.578125l0 -4.53125l-0.984375 0l0 -1.03125l0.984375 0l0 -1.953125l1.328125 -0.796875l0 2.75l1.34375 0l0 1.03125l-1.34375 0l0 4.609375q0 0.578125 0.0625 0.75q0.078125 0.15625 0.234375 0.25q0.15625 0.09375 0.453125 0.09375q0.21875 0 0.59375 -0.046875zm12.157898 -0.09375l0 1.28125l-7.1875 0q-0.015625 -0.484375 0.15625 -0.921875q0.28125 -0.734375 0.875 -1.4375q0.609375 -0.71875 1.75 -1.65625q1.78125 -1.453125 2.40625 -2.296875q0.625 -0.859375 0.625 -1.609375q0 -0.796875 -0.578125 -1.34375q-0.5625 -0.546875 -1.46875 -0.546875q-0.96875 0 -1.546875 0.578125q-0.578125 0.578125 -0.59375 1.609375l-1.359375 -0.140625q0.140625 -1.546875 1.046875 -2.34375q0.921875 -0.8125 2.46875 -0.8125q1.578125 0 2.484375 0.875q0.90625 0.859375 0.90625 2.15625q0 0.640625 -0.265625 1.28125q-0.265625 0.625 -0.890625 1.328125q-0.609375 0.6875 -2.046875 1.90625q-1.203125 1.015625 -1.546875 1.375q-0.34375 0.359375 -0.5625 0.71875l5.328125 0zm1.4309692 -4.078125q0 -1.9375 0.390625 -3.109375q0.40625 -1.171875 1.1875 -1.8125q0.78125 -0.640625 1.96875 -0.640625q0.8750305 0 1.5312805 0.359375q0.671875 0.34375 1.09375 1.015625q0.4375 0.65625 0.671875 1.609375q0.25 0.953125 0.25 2.578125q0 1.90625 -0.390625 3.09375q-0.390625 1.171875 -1.171875 1.8125q-0.78125 0.640625 -1.9844055 0.640625q-1.5625 0 -2.46875 -1.125q-1.078125 -1.359375 -1.078125 -4.421875zm1.375 0q0 2.671875 0.625 3.5625q0.625 0.890625 1.546875 0.890625q0.9219055 0 1.5469055 -0.890625q0.625 -0.890625 0.625 -3.5625q0 -2.6875 -0.625 -3.5625q-0.625 -0.890625 -1.5625305 -0.890625q-0.921875 0 -1.46875 0.78125q-0.6875 1.0 -0.6875 3.671875zm14.087189 4.078125l0 1.28125l-7.1875 0q-0.015625 -0.484375 0.15625 -0.921875q0.28125 -0.734375 0.875 -1.4375q0.609375 -0.71875 1.75 -1.65625q1.78125 -1.453125 2.40625 -2.296875q0.625 -0.859375 0.625 -1.609375q0 -0.796875 -0.578125 -1.34375q-0.5625 -0.546875 -1.46875 -0.546875q-0.96875 0 -1.546875 0.578125q-0.578125 0.578125 -0.59375 1.609375l-1.359375 -0.140625q0.140625 -1.546875 1.046875 -2.34375q0.921875 -0.8125 2.46875 -0.8125q1.578125 0 2.484375 0.875q0.90625 0.859375 0.90625 2.15625q0 0.640625 -0.265625 1.28125q-0.265625 0.625 -0.890625 1.328125q-0.609375 0.6875 -2.046875 1.90625q-1.203125 1.015625 -1.546875 1.375q-0.34375 0.359375 -0.5625 0.71875l5.328125 0zm1.4309692 -1.5625l1.40625 -0.125q0.15625 1.03125 0.71875 1.546875q0.578125 0.515625 1.375 0.515625q0.96875 0 1.625 -0.71875q0.671875 -0.734375 0.671875 -1.9375q0 -1.140625 -0.640625 -1.796875q-0.640625 -0.671875 -1.6875 -0.671875q-0.640625 0 -1.15625 0.296875q-0.515625 0.296875 -0.8125 0.765625l-1.25 -0.171875l1.046875 -5.578125l5.40625 0l0 1.265625l-4.34375 0l-0.578125 2.921875q0.96875 -0.671875 2.046875 -0.671875q1.421875 0 2.40625 0.984375q0.984375 0.984375 0.984375 2.53125q0 1.484375 -0.859375 2.546875q-1.046875 1.328125 -2.859375 1.328125q-1.484375 0 -2.421875 -0.828125q-0.9375 -0.828125 -1.078125 -2.203125z" fill-rule="nonzero"/><path fill="#2b535e" d="m0.015748031 0l216.72441 0l-216.72441 216.72441z" fill-rule="evenodd"/><path stroke="#595959" stroke-width="1.0" stroke-linejoin="round" stroke-linecap="butt" d="m0.015748031 0l216.72441 0l-216.72441 216.72441z" fill-rule="evenodd"/><path fill="#2b535e" d="m960.0105 540.0l-109.480286 0l109.480286 -109.480316z" fill-rule="evenodd"/><path stroke="#595959" stroke-width="1.0" stroke-linejoin="round" stroke-linecap="butt" d="m960.0105 540.0l-109.480286 0l109.480286 -109.480316z" fill-rule="evenodd"/></g></svg>